<?xml version="1.0" encoding="iso-8859-1"?>
<!-- Uploaded to: SVG Repo, www.svgrepo.com, Generator: SVG Repo Mixer Tools -->
<svg height="800px" width="800px" version="1.1" id="Layer_1" xmlns="http://www.w3.org/2000/svg" xmlns:xlink="http://www.w3.org/1999/xlink" 
	 viewBox="0 0 512 512" xml:space="preserve">
<path style="fill:#BDDEFF;" d="M351.663,483.38c6.455,6.455,6.455,17.029,0,23.596c-6.953,6.72-17.259,6.334-23.596,0
	l-19.589-19.589c-19.588-19.585-19.619-51.171,0-70.787c4.055-4.056,15.188-15.188,19.589-19.589c6.455-6.455,6.455-17.029,0-23.596
	l-17.029-16.918v-0.111c-8.697-8.697-14.563-16.692-16.695-30.051c-3.224-22.034,29.486-27.249,33.056-5.231
	c1.331,8.249,18.204,22.655,24.265,28.716c19.478,19.478,19.478,51.31,0,70.787l-19.589,19.589c-6.533,6.531-6.532,17.064,0,23.596
	L351.663,483.38z"/>
<path style="fill:#D7EBFF;" d="M138.022,505.835c-16.228-19.966-14.738-48.76,3.478-66.982l19.564-19.564
	c6.423-6.423,6.576-16.641,0.348-23.25c-6.326-6.706-6.021-17.272,0.685-23.597c6.717-6.326,17.272-6.027,23.597,0.684
	c18.716,19.83,18.271,50.482-1.022,69.775l-19.564,19.564c-6.065,6.07-6.576,15.662-1.174,22.304
	c5.815,7.152,4.728,17.668-2.424,23.489C154.379,514.052,143.87,513.019,138.022,505.835z"/>
<path style="fill:#36D9D9;" d="M208.295,389.99c-9.3,7.691-20.685,11.522-32.06,11.494c-11.375-0.028-22.738-3.913-31.996-11.655
	C62.028,321.068,0.62,283.41,0.62,214.366c0-56.998,41.985-102.063,96.164-102.063c7.012,0,13.829,0.751,20.409,2.254
	c6.58,1.503,12.925,3.756,18.991,6.762c5.015,5.623,36.26,40.658,41.293,46.301c5.078,5.694,110.465,123.873,115.53,129.554
	c6.233,6.789,5.676,17.363-1.224,23.595C269.538,340.807,246.103,358.725,208.295,389.99z"/>
<path style="fill:#43BFBF;" d="M291.783,320.768c6.901-6.233,7.457-16.805,1.224-23.595c-5.065-5.681-110.453-123.86-115.53-129.554
	c-0.315-0.354-0.733-0.824-1.242-1.393v235.258c11.374,0.028,22.76-3.803,32.06-11.494
	C246.103,358.725,269.538,340.807,291.783,320.768z"/>
<path style="fill:#F26D76;" d="M402.639,0c-47.748,0-75.797,30.163-91.601,55.984C295.346,30.163,266.295,0,218.546,0
	c-60.993,0-108.741,51.087-108.741,116.532c0,70.454,55.65,117.2,139.795,187.876c9.128,7.68,18.697,15.693,28.494,24.041
	c9.461,8.014,21.369,12.021,32.945,12.021h0.111c11.575,0,22.483-4.007,31.943-12.021c9.794-8.348,19.366-16.361,28.492-24.041
	c84.143-70.676,139.794-117.423,139.794-187.876C511.38,51.087,463.632,0,402.639,0z"/>
<g>
	<path style="fill:#EDF0F2;" d="M274.485,232.833c-3.837,0-7.706-1.321-10.847-4.016c-58.998-50.531-87.073-80.231-87.073-112.339
		c0-9.222,7.478-16.695,16.695-16.695s16.695,7.473,16.695,16.695c0,20.667,37.249,54.303,75.4,86.981
		c7,6,7.814,16.537,1.826,23.537C283.876,230.855,279.192,232.833,274.485,232.833z"/>
	<path style="fill:#EDF0F2;" d="M130.489,287.249c-3.815,0-7.652-1.304-10.793-3.967c-33.945-28.809-52.346-48.325-52.346-68.905
		c0-9.222,7.478-16.695,16.695-16.695s16.695,7.473,16.695,16.695c0.315,4.353,7.597,15.478,40.564,43.45
		c7.032,5.961,7.891,16.499,1.924,23.532C139.924,285.25,135.228,287.249,130.489,287.249z"/>
</g>
<path style="fill:#E65C64;" d="M511.38,116.532c0,70.454-55.65,117.2-139.795,187.876c-9.126,7.68-18.697,15.693-28.492,24.041
	c-9.461,8.014-20.368,12.021-31.943,12.021h-0.111V55.984C326.842,30.163,354.89,0,402.639,0
	C463.632,0,511.38,51.087,511.38,116.532z"/>
</svg>